<?xml version="1.0" encoding="UTF-8"?>
<svg id="Layer_1" data-name="Layer 1" xmlns="http://www.w3.org/2000/svg" viewBox="0 0 1080 1080">
  <defs>
    <style>
      .cls-1 {
        fill: #000;
        stroke-width: 0px;
      }
    </style>
  </defs>
  <path class="cls-1" d="M540,905.44c-49.33,0-97.19-9.66-142.25-28.72-43.52-18.41-82.6-44.75-116.16-78.31-33.56-33.56-59.91-72.64-78.31-116.16-19.06-45.06-28.72-92.92-28.72-142.25s9.66-97.19,28.72-142.25c18.41-43.52,44.75-82.6,78.31-116.16,33.56-33.56,72.64-59.91,116.16-78.31,45.06-19.06,92.92-28.72,142.25-28.72s97.19,9.66,142.25,28.72c43.52,18.41,82.6,44.75,116.16,78.31s59.91,72.64,78.31,116.16c19.06,45.06,28.72,92.92,28.72,142.25s-9.66,97.19-28.72,142.25c-18.41,43.52-44.75,82.6-78.31,116.16s-72.64,59.91-116.16,78.31c-45.06,19.06-92.92,28.72-142.25,28.72ZM540,202.27c-186.23,0-337.73,151.51-337.73,337.73s151.51,337.73,337.73,337.73h0c186.23,0,337.73-151.5,337.73-337.73s-151.5-337.73-337.73-337.73Z"/>
  <path class="cls-1" d="M486.43,752.52h85.59v-214.32h59.71l6.37-71.76h-66.08v-40.87c0-16.92,3.4-23.6,19.76-23.6h46.32v-74.48h-59.26c-63.69,0-92.4,28.05-92.4,81.74v57.21h-44.52v72.66h44.52v213.43Z"/>
</svg>