<?xml version="1.0" encoding="UTF-8"?>
<svg id="Layer_1" data-name="Layer 1" xmlns="http://www.w3.org/2000/svg" viewBox="0 0 1080 1080">
  <defs>
    <style>
      .cls-1 {
        fill: #000;
        stroke-width: 0px;
      }
    </style>
  </defs>
  <path class="cls-1" d="M540,865.83c-87.03,0-168.85-33.89-230.39-95.43-61.54-61.54-95.43-143.36-95.43-230.39s33.89-168.85,95.43-230.39c61.54-61.54,143.36-95.43,230.39-95.43s168.85,33.89,230.39,95.43,95.43,143.36,95.43,230.39-33.89,168.85-95.43,230.39c-61.54,61.54-143.36,95.43-230.39,95.43ZM540,238.88c-166.04,0-301.12,135.08-301.12,301.12s135.08,301.12,301.12,301.12h0c166.04,0,301.12-135.08,301.12-301.12s-135.08-301.12-301.12-301.12Z"/>
  <g>
    <g>
      <rect class="cls-1" x="397.86" y="470.12" width="64.88" height="209.59"/>
      <path class="cls-1" d="M429.98,442.68c21.19,0,38.36-17.33,38.36-38.68s-17.17-38.67-38.36-38.67-38.36,17.32-38.36,38.67,17.17,38.68,38.36,38.68Z"/>
    </g>
    <path class="cls-1" d="M566.44,569.69c0-29.46,13.56-47.02,39.53-47.02,23.85,0,35.32,16.85,35.32,47.02v110.02h64.57v-132.7c0-56.14-31.82-83.28-76.26-83.28s-63.16,34.63-63.16,34.63v-28.23h-62.23v209.59h62.23v-110.02Z"/>
  </g>
</svg>