<?xml version="1.0" encoding="UTF-8"?>
<svg id="Layer_1" data-name="Layer 1" xmlns="http://www.w3.org/2000/svg" viewBox="0 0 1080 1080">
  <defs>
    <style>
      .cls-1 {
        fill: #000;
        stroke-width: 0px;
      }
    </style>
  </defs>
  <path class="cls-1" d="M540,936.26c-53.49,0-105.38-10.48-154.25-31.15-47.19-19.96-89.56-48.53-125.95-84.92s-64.96-78.76-84.92-125.95c-20.67-48.86-31.15-100.76-31.15-154.25s10.48-105.38,31.15-154.25c19.96-47.19,48.53-89.56,84.92-125.95,36.39-36.39,78.76-64.96,125.95-84.92,48.86-20.67,100.76-31.15,154.25-31.15s105.38,10.48,154.25,31.15c47.19,19.96,89.56,48.53,125.95,84.92,36.39,36.39,64.96,78.76,84.92,125.95,20.67,48.86,31.15,100.76,31.15,154.25s-10.48,105.38-31.15,154.25c-19.96,47.19-48.53,89.56-84.92,125.95-36.39,36.39-78.76,64.96-125.95,84.92-48.86,20.67-100.76,31.15-154.25,31.15ZM540,173.79c-201.93,0-366.21,164.28-366.21,366.21s164.28,366.21,366.21,366.21,366.21-164.28,366.21-366.21-164.28-366.21-366.21-366.21Z"/>
  <g>
    <path class="cls-1" d="M540,368.63c55.82,0,62.42.21,84.47,1.22,20.38.93,31.45,4.34,38.82,7.2,9.76,3.79,16.72,8.32,24.03,15.63,7.32,7.32,11.84,14.28,15.64,24.03,2.86,7.37,6.27,18.43,7.2,38.82,1,22.04,1.22,28.65,1.22,84.47s-.22,62.42-1.22,84.46c-.93,20.38-4.34,31.45-7.2,38.81-3.79,9.76-8.32,16.72-15.64,24.04-7.31,7.31-14.28,11.84-24.03,15.64-7.37,2.86-18.44,6.27-38.82,7.2-22.04,1-28.65,1.21-84.47,1.21s-62.43-.21-84.47-1.21c-20.38-.93-31.45-4.34-38.81-7.2-9.76-3.79-16.72-8.32-24.04-15.64-7.31-7.32-11.84-14.28-15.64-24.04-2.86-7.36-6.27-18.43-7.2-38.81-1-22.04-1.22-28.65-1.22-84.46s.21-62.43,1.22-84.47c.93-20.38,4.34-31.45,7.2-38.82,3.79-9.76,8.32-16.72,15.64-24.03,7.32-7.32,14.28-11.84,24.04-15.63,7.36-2.86,18.43-6.27,38.81-7.2,22.04-1.01,28.66-1.22,84.47-1.22M540,330.97c-56.77,0-63.89.24-86.19,1.26-22.25,1.02-37.44,4.55-50.74,9.72-13.75,5.34-25.4,12.49-37.03,24.11-11.62,11.62-18.77,23.28-24.11,37.03-5.17,13.3-8.7,28.49-9.72,50.74-1.02,22.3-1.26,29.41-1.26,86.19s.24,63.89,1.26,86.18c1.01,22.25,4.55,37.44,9.72,50.74,5.34,13.74,12.48,25.4,24.11,37.02,11.62,11.62,23.28,18.77,37.03,24.11,13.3,5.16,28.49,8.7,50.74,9.72,22.3,1.02,29.41,1.25,86.19,1.25s63.89-.24,86.18-1.25c22.25-1.02,37.44-4.55,50.74-9.72,13.75-5.34,25.4-12.49,37.02-24.11,11.62-11.62,18.77-23.28,24.11-37.02,5.16-13.3,8.7-28.49,9.72-50.74,1.02-22.3,1.25-29.41,1.25-86.18s-.24-63.89-1.25-86.19c-1.02-22.25-4.55-37.44-9.72-50.74-5.34-13.74-12.49-25.41-24.11-37.03-11.62-11.62-23.28-18.77-37.02-24.11-13.3-5.16-28.49-8.7-50.74-9.72-22.3-1.01-29.41-1.26-86.18-1.26"/>
    <path class="cls-1" d="M540,432.66c-59.28,0-107.34,48.06-107.34,107.34s48.06,107.34,107.34,107.34,107.34-48.06,107.34-107.34-48.06-107.34-107.34-107.34M540,609.68c-38.48,0-69.68-31.2-69.68-69.68s31.19-69.68,69.68-69.68,69.68,31.2,69.68,69.68-31.19,69.68-69.68,69.68"/>
    <path class="cls-1" d="M676.67,428.42c0,13.85-11.23,25.09-25.08,25.09s-25.09-11.23-25.09-25.09,11.23-25.08,25.09-25.08,25.08,11.23,25.08,25.08"/>
  </g>
</svg>